<?xml version="1.0" encoding="UTF-8"?>
<svg id="Layer_2" xmlns="http://www.w3.org/2000/svg" viewBox="0 0 444.26 180.24">
  <defs>
    <style>
      .cls-1 {
        fill: #c41230;
      }

      .cls-2 {
        fill: #58595b;
      }
    </style>
  </defs>
  <g id="_1_COL_-_BLACK_80_blk">
    <g>
      <g>
        <path class="cls-1" d="m46.67,121.39H0c22.31,35.79,65.66,58.84,110.88,58.85,13.43,0,26.53-1.94,39.05-5.78-6.48,1.4-13.11,2.11-19.85,2.1-37.31-.04-70.65-22.09-83.4-55.17Zm126.41,9.47c-14.3,18.33-35.93,28.84-59.42,28.84-17.69,0-34.34-5.93-47.71-16.86,16.3,17.96,39.7,28.11,65.49,28.11,31.05,0,58.72-14.92,74.37-40.09h-32.72Z" />
        <path class="cls-1" d="m177.45,12.58C156.3-.87,127.16-3.12,123.19,3.86c-5.04,6.77-8.13,13.75-12.75,21.72,0,0,32.68-11.82,67.01-13.01Z" />
        <path class="cls-1" d="m82.51,67.94c.06-.49.12-.97.18-1.45,1.43-10.2,5.98-20.41,11.65-29.81-14.27,5.54-39.76,16.18-53.12,26.43-2.43,25.61,12.2,59.06,45.54,74.06,5.71,2.62,18.32,7.37,36.16,8.16.67.03,1.3.03,1.98.05.03,0,.02,0,.04,0-.68-.36-1.31-.7-1.99-1.08-6.81-3.79-14.06-8.87-20.61-15.53-13.15-13.34-23.2-33.38-19.83-60.85Zm23.96-35.88c-7.24,11.3-13.37,24.11-14.44,35.58-.04.45-.08.89-.11,1.32-2.02,25.42,7.59,42.45,19.99,54.22,10.32,9.75,22.69,15.52,31.56,18.49-7.74-7.46-12.34-16.8-13.42-27.4h0v-.04c-.3-2.94-.33-5.96-.08-9.06.07-.86.16-1.72.27-2.59,3.2-29.69,25.85-51.87,26.03-52.05,16.05-17.98,34.83-28.91,42.45-32.91-29.57-1.64-61.34,3.33-92.23,14.43Z" />
      </g>
      <g>
        <path class="cls-2" d="m282.99,37.1h-17.13c-2.81,0-3.29.62-4.82,5.08l-21.96,66.09-22.95-67.5c-1.01-3.04-1.78-3.67-5.07-3.67h-19.77s-1.3.61.06,1.35c0,0,1.82.83,1.96,2.6v76.8c-.18,1.69-1.96,2.49-1.96,2.49-.46.25-.61.48-.61.69,0,.39.59.68.59.68h13.01c.88,0,1.64-.77,1.64-1.66v-62.55l21.33,59.78c1.39,3.79,2.02,4.44,4.43,4.44h10.28c2.42,0,3.72-.68,4.45-2.41.23-.67,21.69-61.8,21.69-61.8v62.55c0,1.03.91,1.66,1.65,1.66h13.14s1.64-.02,1.7-1.75v-1.34h0V38.75c0-.89-.76-1.65-1.65-1.65Z" />
        <path class="cls-2" d="m436.27,81.01c-3.44-2.55-5.31-3.3-11.03-4.7,4.57-1.01,6.08-1.65,8.49-3.55,4.06-3.17,6.73-9.01,6.73-14.98,0-6.34-3.05-12.93-7.63-16.1-4.67-3.42-9.88-4.56-20.41-4.56h-34.49s-1.29.61.07,1.34c0,0,1.81.88,1.93,2.3v77.18c-.21,1.66-1.94,2.44-1.94,2.44-1.34.72-.04,1.36-.04,1.36h36.39c10.13,0,16.11-1.66,21.55-5.84,5.73-4.32,8.38-10.16,8.38-17.51s-3.04-13.71-7.99-17.38Zm-12.69,27.01c-2.65,2.28-5.58,3.19-11.92,3.19h-15.61v-63.7h15.98c7.24,0,11.93,5.08,11.93,12.83s-8.3,11.58-16.92,11.58h-1.09v.03s-1.3-.05-1.45,1.12v9.34s-.22,1.63,1.54,1.58v.02h3.41c9.37,0,18.3,4.49,18.3,13.37,0,4.19-1.53,8.25-4.19,10.65Z" />
        <path class="cls-2" d="m362.43,39.39c-5.35-2.16-14.08-3.55-22.46-3.55-26.39,0-43.77,17.88-43.77,45.02,0,13.68,4.29,24.32,12.26,31.47,2.48,2.32,5.88,4.93,10.27,7.06.5.27,1.61.79,3.21,1.39,2.54.99,5.38,1.79,8.52,2.32,8.14,1.46,19.86,1.54,33.37-4.38.08-.02.2-.08.33-.12.02-.02.07-.05.1-.07h.02c.12-.06.18-.1.18-.1,1.56-.74,1.5-2.72,1.5-2.72h0c.03-.14.03-.3.03-.46v-8.62c0-.12-.02-.24-.03-.36v-2.97c-.23-2.75-3.19-.42-3.19-.42-5.36,3.8-12.01,6.03-19.21,5.9-18.04-.32-28.54-11.29-30.67-25.52-.12-1.27-.19-2.57-.19-3.91,0-18.27,12.3-31,30.32-30.83,10.48.1,17.01,3.44,19.8,5.02.21.12.37.22.5.32.36.29.79.69,1.12,1.26,0,0,.15.3.36.53.65.74,1.19-.31,1.19-.31v-11.76c0-2.03-1.02-3.17-3.55-4.19Z" />
      </g>
    </g>
  </g>
</svg>