<?xml version="1.0" encoding="UTF-8"?>
<svg id="Layer_2" xmlns="http://www.w3.org/2000/svg" viewBox="0 0 205.81 180.24">
  <defs>
    <style>
      .cls-1 {
        fill: #c41230;
      }
    </style>
  </defs>
  <g id="_1_COL_-_BLACK_80_blk">
    <g>
      <path class="cls-1" d="m46.67,121.39H0c22.31,35.79,65.66,58.84,110.88,58.85,13.43,0,26.53-1.94,39.05-5.78-6.48,1.4-13.11,2.11-19.85,2.1-37.31-.04-70.65-22.09-83.4-55.17Zm126.41,9.47c-14.3,18.33-35.93,28.84-59.42,28.84-17.69,0-34.34-5.93-47.71-16.86,16.3,17.96,39.7,28.11,65.49,28.11,31.05,0,58.72-14.92,74.37-40.09h-32.72Z" />
      <path class="cls-1" d="m177.45,12.58C156.3-.87,127.16-3.12,123.19,3.86c-5.04,6.77-8.13,13.75-12.75,21.72,0,0,32.68-11.82,67.01-13.01Z" />
      <path class="cls-1" d="m82.51,67.94c.06-.49.12-.97.18-1.45,1.43-10.2,5.98-20.41,11.65-29.81-14.27,5.54-39.76,16.18-53.12,26.43-2.43,25.61,12.2,59.06,45.54,74.06,5.71,2.62,18.32,7.37,36.16,8.16.67.03,1.3.03,1.98.05.03,0,.02,0,.04,0-.68-.36-1.31-.7-1.99-1.08-6.81-3.79-14.06-8.87-20.61-15.53-13.15-13.34-23.2-33.38-19.83-60.85Zm23.96-35.88c-7.24,11.3-13.37,24.11-14.44,35.58-.04.45-.08.89-.11,1.32-2.02,25.42,7.59,42.45,19.99,54.22,10.32,9.75,22.69,15.52,31.56,18.49-7.74-7.46-12.34-16.8-13.42-27.4h0v-.04c-.3-2.94-.33-5.96-.08-9.06.07-.86.16-1.72.27-2.59,3.2-29.69,25.85-51.87,26.03-52.05,16.05-17.98,34.83-28.91,42.45-32.91-29.57-1.64-61.34,3.33-92.23,14.43Z" />
    </g>
  </g>
</svg>